<svg width="64" height="64" viewBox="0 0 64 64" fill="none" xmlns="http://www.w3.org/2000/svg">
<g clip-path="url(#clip0_2866_14854)">
<path d="M54.6261 9.35765C48.5835 3.32114 40.5462 0 31.9958 0C23.4453 0 15.408 3.32114 9.36949 9.35326C3.32689 15.3854 0 23.4044 0 31.9403C0 40.4759 3.32689 48.495 9.36949 54.5271C15.4124 60.5592 23.4494 63.8847 32.0002 63.8847C40.5506 63.8847 48.5879 60.5636 54.6305 54.5315C60.6731 48.499 64 40.4803 64 31.9444C64 23.4088 60.6731 15.3898 54.6305 9.35765H54.6261ZM57.3165 31.9444C57.3165 44.6019 47.8791 55.3404 35.3355 56.9967V6.88362C47.8791 8.53996 57.3165 19.2828 57.3165 31.9403V31.9444ZM12.3526 16.0124C16.4647 10.9629 22.2359 7.73072 28.6604 6.88362V16.0124H12.3526ZM28.6604 22.68V28.6402H6.89579C7.16284 26.5985 7.68508 24.5946 8.44024 22.68H28.6604ZM28.6604 35.3037V41.2638H8.46559C7.70199 39.3492 7.17567 37.3454 6.90423 35.3037H28.6604ZM28.6604 47.9315V56.9967C22.2697 56.1537 16.5157 52.9427 12.408 47.9315H28.6604Z" fill="#5B0EFF"/>
</g>
<defs>
<clipPath id="clip0_2866_14854">
<rect width="64" height="64" fill="white"/>
</clipPath>
</defs>
</svg>
