<svg width="98" height="29" viewBox="0 0 98 29" fill="none" xmlns="http://www.w3.org/2000/svg">
<g clip-path="url(#clip0_6559_17753)">
<path d="M44.9279 3.89505C45.9642 4.41145 46.7633 5.14468 47.3287 6.09473C47.8941 7.04478 48.176 8.14876 48.176 9.40832C48.176 10.6679 47.8941 11.7719 47.3287 12.7219C46.7633 13.672 45.9625 14.4052 44.9279 14.9216C43.8933 15.438 42.6962 15.6979 41.34 15.6979H36.792V22.8613H33.5439V3.12044H41.34C42.6962 3.12044 43.8917 3.37865 44.9279 3.8967V3.89505ZM41.0581 12.8775C42.2253 12.8775 43.1538 12.563 43.8403 11.9324C44.5283 11.3035 44.8715 10.461 44.8715 9.40832C44.8715 8.35565 44.5333 7.49167 43.8552 6.87099C43.177 6.25031 42.2552 5.9408 41.0863 5.9408H36.792V12.8775H41.0581Z" fill="#121212"/>
<path d="M56.2504 19.5607L60.1766 8.42161H63.4246L56.8705 25.1153C56.5322 25.981 56.2205 26.643 55.9387 27.1032C55.6568 27.5633 55.307 27.9109 54.8941 28.1459C54.4813 28.3809 53.9242 28.4985 53.2278 28.4985H49.9516V25.8188H52.0987C52.6823 25.8188 53.0869 25.7294 53.314 25.5506C53.5412 25.3719 53.775 24.973 54.0203 24.3523L54.6139 22.9703L48.9634 8.41829H52.2114L56.2504 19.5574V19.5607Z" fill="#121212"/>
<path d="M67.3496 3.12052V22.8614H64.2988V3.12052H67.3496Z" fill="#121212"/>
<path d="M69.2359 19.5185C68.6241 18.3996 68.3174 17.107 68.3174 15.6405C68.3174 14.174 68.6241 12.9095 69.2359 11.7906C69.8477 10.6718 70.7149 9.80282 71.834 9.18214C72.9549 8.56146 74.2398 8.25195 75.6906 8.25195C77.1414 8.25195 78.4263 8.56146 79.5472 9.18214C80.668 9.80282 81.5335 10.6718 82.1453 11.7906C82.7571 12.9095 83.0638 14.1923 83.0638 15.6405C83.0638 17.0887 82.7571 18.3996 82.1453 19.5185C81.5335 20.6374 80.6663 21.5013 79.5472 22.1137C78.4263 22.7245 77.1414 23.0307 75.6906 23.0307C74.2398 23.0307 72.9549 22.7245 71.834 22.1137C70.7132 21.503 69.8477 20.6374 69.2359 19.5185ZM79.9567 15.6405C79.9567 14.2303 79.5654 13.0783 78.7845 12.1862C78.0035 11.2924 76.9722 10.8472 75.6906 10.8472C74.4089 10.8472 73.3843 11.2941 72.6117 12.1862C71.839 13.0783 71.4527 14.2303 71.4527 15.6405C71.4527 17.0507 71.839 18.2027 72.6117 19.0948C73.3843 19.9885 74.4106 20.4338 75.6906 20.4338C76.9706 20.4338 78.0019 19.9869 78.7845 19.0948C79.5654 18.2027 79.9567 17.0507 79.9567 15.6405Z" fill="#121212"/>
<path d="M97.4713 14.9073V22.8602H94.3923V15.0778C94.3923 13.7056 94.1005 12.6612 93.5169 11.9479C92.9333 11.2329 92.0761 10.877 90.9469 10.877C89.7416 10.877 88.7948 11.2958 88.1084 12.1316C87.4203 12.9674 87.0771 14.1194 87.0771 15.5859V22.8619H84.0264V8.42078H86.6825L87.0207 10.3109C88.1134 8.93884 89.657 8.25195 91.6533 8.25195C93.3676 8.25195 94.7654 8.77829 95.8481 9.83096C96.9307 10.8836 97.4729 12.5752 97.4729 14.9073H97.4713Z" fill="#121212"/>
<path d="M21.3437 4.1562C18.9827 1.79763 15.8424 0.5 12.5015 0.5C9.16056 0.5 6.02027 1.79763 3.66091 4.15455C1.29989 6.51147 0 9.64465 0 12.9798C0 16.3149 1.29989 19.448 3.66091 21.805C6.02193 24.1619 9.16222 25.4612 12.5031 25.4612C15.844 25.4612 18.9843 24.1635 21.3454 21.8066C23.7064 19.4497 25.0063 16.3165 25.0063 12.9814C25.0063 9.6463 23.7064 6.51312 21.3454 4.1562H21.3437ZM22.3949 12.9814C22.3949 17.927 18.7074 22.1227 13.8063 22.7699V3.1896C18.7074 3.83676 22.3949 8.0342 22.3949 12.9798V12.9814ZM4.8265 6.75643C6.43312 4.7835 8.68803 3.52063 11.1983 3.1896V6.75643H4.8265ZM11.1983 9.36162V11.6904H2.69428C2.79874 10.8926 3.00267 10.1097 3.2978 9.36162H11.1983ZM11.1983 14.2939V16.6227H3.30775C3.00931 15.8746 2.80371 15.0917 2.6976 14.2939H11.1983ZM11.1983 19.2279V22.7699C8.70129 22.4405 6.45302 21.1859 4.84805 19.2279H11.1983Z" fill="#5B0EFF"/>
</g>
<defs>
<clipPath id="clip0_6559_17753">
<rect width="97.4717" height="28" fill="white" transform="translate(0 0.5)"/>
</clipPath>
</defs>
</svg>
