<svg width="98" height="29" viewBox="0 0 98 29" fill="none" xmlns="http://www.w3.org/2000/svg">
<mask id="mask0_3290_160" style="mask-type:luminance" maskUnits="userSpaceOnUse" x="0" y="0" width="98" height="29">
<path d="M97.4717 0.5H0V28.5H97.4717V0.5Z" fill="white"/>
</mask>
<g mask="url(#mask0_3290_160)">
<path d="M44.927 3.89522C45.9633 4.41162 46.7624 5.14485 47.3278 6.0949C47.8932 7.04495 48.1751 8.14893 48.1751 9.40849C48.1751 10.6681 47.8932 11.7721 47.3278 12.7221C46.7624 13.6722 45.9616 14.4054 44.927 14.9218C43.8924 15.4382 42.6953 15.6981 41.3391 15.6981H36.7911V22.8615H33.543V3.12061H41.3391C42.6953 3.12061 43.8908 3.37882 44.927 3.89687V3.89522ZM41.0572 12.8777C42.2244 12.8777 43.1529 12.5632 43.8394 11.9326C44.5274 11.3037 44.8706 10.4612 44.8706 9.40849C44.8706 8.35582 44.5324 7.49184 43.8543 6.87116C43.1761 6.25048 42.2543 5.94097 41.0854 5.94097H36.7911V12.8777H41.0572Z" fill="#121212"/>
<path d="M56.2499 19.5609L60.1761 8.42178H63.4241L56.87 25.1155C56.5317 25.9812 56.22 26.6432 55.9382 27.1034C55.6563 27.5635 55.3065 27.9111 54.8936 28.1461C54.4808 28.3811 53.9237 28.4987 53.2273 28.4987H49.9511V25.819H52.0982C52.6818 25.819 53.0864 25.7296 53.3135 25.5508C53.5407 25.3721 53.7745 24.9732 54.0198 24.3525L54.6134 22.9705L48.9629 8.41846H52.2109L56.2499 19.5576V19.5609Z" fill="#121212"/>
<path d="M67.3496 3.12061V22.8615H64.2988V3.12061H67.3496Z" fill="#121212"/>
<path d="M69.2369 19.5185C68.6251 18.3996 68.3184 17.107 68.3184 15.6405C68.3184 14.174 68.6251 12.9095 69.2369 11.7906C69.8487 10.6718 70.7159 9.80282 71.835 9.18214C72.9559 8.56146 74.2408 8.25195 75.6916 8.25195C77.1424 8.25195 78.4273 8.56146 79.5482 9.18214C80.669 9.80282 81.5345 10.6718 82.1463 11.7906C82.7581 12.9095 83.0648 14.1923 83.0648 15.6405C83.0648 17.0887 82.7581 18.3996 82.1463 19.5185C81.5345 20.6374 80.6673 21.5013 79.5482 22.1137C78.4273 22.7245 77.1424 23.0307 75.6916 23.0307C74.2408 23.0307 72.9559 22.7245 71.835 22.1137C70.7142 21.503 69.8487 20.6374 69.2369 19.5185ZM79.9577 15.6405C79.9577 14.2303 79.5664 13.0783 78.7855 12.1862C78.0045 11.2924 76.9732 10.8472 75.6916 10.8472C74.4099 10.8472 73.3853 11.2941 72.6127 12.1862C71.84 13.0783 71.4537 14.2303 71.4537 15.6405C71.4537 17.0507 71.84 18.2027 72.6127 19.0948C73.3853 19.9885 74.4116 20.4338 75.6916 20.4338C76.9716 20.4338 78.0029 19.9869 78.7855 19.0948C79.5664 18.2027 79.9577 17.0507 79.9577 15.6405Z" fill="#121212"/>
<path d="M97.4722 14.9073V22.8602H94.3932V15.0778C94.3932 13.7056 94.1014 12.6612 93.5178 11.9479C92.9342 11.2329 92.077 10.877 90.9478 10.877C89.7425 10.877 88.7957 11.2958 88.1093 12.1316C87.4212 12.9674 87.078 14.1194 87.078 15.5859V22.8619H84.0273V8.42078H86.6834L87.0216 10.3109C88.1143 8.93884 89.6579 8.25195 91.6542 8.25195C93.3685 8.25195 94.7663 8.77829 95.849 9.83096C96.9316 10.8836 97.4738 12.5752 97.4738 14.9073H97.4722Z" fill="#121212"/>
<path d="M21.3437 4.1562C18.9827 1.79763 15.8424 0.5 12.5015 0.5C9.16056 0.5 6.02027 1.79763 3.66091 4.15455C1.29989 6.51147 0 9.64465 0 12.9798C0 16.3149 1.29989 19.448 3.66091 21.805C6.02193 24.1619 9.16222 25.4612 12.5031 25.4612C15.844 25.4612 18.9843 24.1635 21.3454 21.8066C23.7064 19.4497 25.0063 16.3165 25.0063 12.9814C25.0063 9.6463 23.7064 6.51312 21.3454 4.1562H21.3437ZM22.3949 12.9814C22.3949 17.927 18.7074 22.1227 13.8063 22.7699V3.1896C18.7074 3.83676 22.3949 8.0342 22.3949 12.9798V12.9814ZM4.8265 6.75643C6.43312 4.7835 8.68803 3.52063 11.1983 3.1896V6.75643H4.8265ZM11.1983 9.36162V11.6904H2.69428C2.79874 10.8926 3.00267 10.1097 3.2978 9.36162H11.1983ZM11.1983 14.2939V16.6227H3.30775C3.00931 15.8746 2.80371 15.0917 2.6976 14.2939H11.1983ZM11.1983 19.2279V22.7699C8.70129 22.4405 6.45302 21.1859 4.84805 19.2279H11.1983Z" fill="#5B0EFF"/>
</g>
</svg>
